<svg width="84" height="35" viewBox="0 0 84 35" fill="none" xmlns="http://www.w3.org/2000/svg">
<path d="M45.4863 13.6348C45.0223 14.1148 44.5823 14.6988 44.1663 15.3868C43.7663 16.0748 43.3983 16.7868 43.0623 17.5228C42.7263 18.2428 42.4383 18.9228 42.1983 19.5628C41.6383 21.0348 41.2063 22.5468 40.9023 24.0988C40.5983 25.6508 40.3823 27.2108 40.2543 28.7788C40.2063 29.3868 40.1023 29.8748 39.9423 30.2428C39.7823 30.5948 39.3503 30.7708 38.6463 30.7708C38.2143 30.7708 37.9263 30.6188 37.7823 30.3148C37.6543 29.9948 37.5903 29.6588 37.5903 29.3068C37.5903 28.6348 37.6943 27.8748 37.9023 27.0268C38.1103 26.1628 38.3663 25.2748 38.6703 24.3628C38.9903 23.4508 39.3183 22.5788 39.6543 21.7468C39.9903 20.8988 40.2943 20.1628 40.5663 19.5388C40.9983 18.5788 41.5023 17.6268 42.0783 16.6828C42.6703 15.7388 43.2863 14.8508 43.9263 14.0188C42.2943 14.0348 40.6463 14.0828 38.9823 14.1628C38.5663 14.1788 38.1343 14.2028 37.6863 14.2348C37.2383 14.2508 36.8063 14.3068 36.3903 14.4028C35.7983 14.5308 35.3503 14.8348 35.0463 15.3148C34.7583 15.7948 34.5263 16.3068 34.3503 16.8508C34.3183 16.8668 34.2703 16.8748 34.2063 16.8748C34.0783 16.8748 33.9663 16.8508 33.8703 16.8028C33.9503 16.2268 34.0143 15.6508 34.0623 15.0748C34.1263 14.4828 34.1903 13.8988 34.2543 13.3228C34.2863 13.2268 34.3023 13.1628 34.3023 13.1308C34.3183 13.0828 34.3743 13.0428 34.4703 13.0108C34.5983 12.9788 34.7343 12.9628 34.8783 12.9628C35.8703 12.9628 36.8623 12.9708 37.8543 12.9868C38.8623 13.0028 39.8703 13.0108 40.8783 13.0108C41.6463 13.0108 42.4143 13.0028 43.1823 12.9868C43.9503 12.9708 44.7183 12.9468 45.4863 12.9148V13.6348Z" fill="#523B95"/>
<path d="M21.4569 13.6348C20.9929 14.1148 20.5529 14.6988 20.1369 15.3868C19.7369 16.0748 19.3689 16.7868 19.0329 17.5228C18.6969 18.2428 18.4089 18.9228 18.1689 19.5628C17.6089 21.0348 17.1769 22.5468 16.8729 24.0988C16.5689 25.6508 16.3529 27.2108 16.2249 28.7788C16.1769 29.3868 16.0729 29.8748 15.9129 30.2428C15.7529 30.5948 15.3209 30.7708 14.6169 30.7708C14.1849 30.7708 13.8969 30.6188 13.7529 30.3148C13.6249 29.9948 13.5609 29.6588 13.5609 29.3068C13.5609 28.6348 13.6649 27.8748 13.8729 27.0268C14.0809 26.1628 14.3369 25.2748 14.6409 24.3628C14.9609 23.4508 15.2889 22.5788 15.6249 21.7468C15.9609 20.8988 16.2649 20.1628 16.5369 19.5388C16.9689 18.5788 17.4729 17.6268 18.0489 16.6828C18.6409 15.7388 19.2569 14.8508 19.8969 14.0188C18.2649 14.0348 16.6169 14.0828 14.9529 14.1628C14.5369 14.1788 14.1049 14.2028 13.6569 14.2348C13.2089 14.2508 12.7769 14.3068 12.3609 14.4028C11.7689 14.5308 11.3209 14.8348 11.0169 15.3148C10.7289 15.7948 10.4969 16.3068 10.3209 16.8508C10.2889 16.8668 10.2409 16.8748 10.1769 16.8748C10.0489 16.8748 9.93689 16.8508 9.84089 16.8028C9.92089 16.2268 9.98489 15.6508 10.0329 15.0748C10.0969 14.4828 10.1609 13.8988 10.2249 13.3228C10.2569 13.2268 10.2729 13.1628 10.2729 13.1308C10.2889 13.0828 10.3449 13.0428 10.4409 13.0108C10.5689 12.9788 10.7049 12.9628 10.8489 12.9628C11.8409 12.9628 12.8329 12.9708 13.8249 12.9868C14.8329 13.0028 15.8409 13.0108 16.8489 13.0108C17.6169 13.0108 18.3849 13.0028 19.1529 12.9868C19.9209 12.9708 20.6889 12.9468 21.4569 12.9148V13.6348Z" fill="#523B95"/>
<path d="M69.5157 13.6348C69.0517 14.1148 68.6117 14.6988 68.1957 15.3868C67.7957 16.0748 67.4277 16.7868 67.0917 17.5228C66.7557 18.2428 66.4677 18.9228 66.2277 19.5628C65.6677 21.0348 65.2357 22.5468 64.9317 24.0988C64.6277 25.6508 64.4117 27.2108 64.2837 28.7788C64.2357 29.3868 64.1317 29.8748 63.9717 30.2428C63.8117 30.5948 63.3797 30.7708 62.6757 30.7708C62.2437 30.7708 61.9557 30.6188 61.8117 30.3148C61.6837 29.9948 61.6197 29.6588 61.6197 29.3068C61.6197 28.6348 61.7237 27.8748 61.9317 27.0268C62.1397 26.1628 62.3957 25.2748 62.6997 24.3628C63.0197 23.4508 63.3477 22.5788 63.6837 21.7468C64.0197 20.8988 64.3237 20.1628 64.5957 19.5388C65.0277 18.5788 65.5317 17.6268 66.1077 16.6828C66.6997 15.7388 67.3157 14.8508 67.9557 14.0188C66.3237 14.0348 64.6757 14.0828 63.0117 14.1628C62.5957 14.1788 62.1637 14.2028 61.7157 14.2348C61.2677 14.2508 60.8357 14.3068 60.4197 14.4028C59.8277 14.5308 59.3797 14.8348 59.0757 15.3148C58.7877 15.7948 58.5557 16.3068 58.3797 16.8508C58.3477 16.8668 58.2997 16.8748 58.2357 16.8748C58.1077 16.8748 57.9957 16.8508 57.8997 16.8028C57.9797 16.2268 58.0437 15.6508 58.0917 15.0748C58.1557 14.4828 58.2197 13.8988 58.2837 13.3228C58.3157 13.2268 58.3317 13.1628 58.3317 13.1308C58.3477 13.0828 58.4037 13.0428 58.4997 13.0108C58.6277 12.9788 58.7637 12.9628 58.9077 12.9628C59.8997 12.9628 60.8917 12.9708 61.8837 12.9868C62.8917 13.0028 63.8997 13.0108 64.9077 13.0108C65.6757 13.0108 66.4437 13.0028 67.2117 12.9868C67.9797 12.9708 68.7477 12.9468 69.5157 12.9148V13.6348Z" fill="#523B95"/>
<rect x="1" y="8.46835" width="78" height="25.5316" rx="2" stroke="#523B95" stroke-width="2"/>
<line x1="28.5" y1="9.3038" x2="28.5" y2="33.1646" stroke="#523B95"/>
<line x1="52.5001" y1="9.3038" x2="52.5001" y2="33.1646" stroke="#523B95"/>
<line x1="3" y1="20.7342" x2="76" y2="20.7342" stroke="#523B95"/>
<line x1="3" y1="19.8164" x2="76" y2="19.8164" stroke="white"/>
<line x1="3" y1="21.6519" x2="76" y2="21.6519" stroke="white"/>
<rect x="80" y="18.481" width="3" height="6.42405" fill="#523B95"/>
<line x1="81.5" y1="3.79745" x2="81.5" y2="18.481" stroke="#523B95"/>
<ellipse cx="81.5001" cy="2.42089" rx="2.5" ry="2.2943" fill="#523B95"/>
</svg>
